<?xml version="1.0" encoding="utf-8"?>
<!-- Generator: Adobe Illustrator 15.1.0, SVG Export Plug-In . SVG Version: 6.00 Build 0)  -->
<!DOCTYPE svg PUBLIC "-//W3C//DTD SVG 1.1//EN" "http://www.w3.org/Graphics/SVG/1.1/DTD/svg11.dtd">
<svg version="1.1" id="Calque_1" xmlns="http://www.w3.org/2000/svg" xmlns:xlink="http://www.w3.org/1999/xlink" x="0px" y="0px"
	 width="24px" height="20px" viewBox="0 0 24 20" enable-background="new 0 0 24 20" xml:space="preserve">
<g>
	<path fill="#11A2B3" d="M7,14h13v1H7V14z M20,11H7v1h13V11z M20,5h-5v1h5V5z M20,8h-5v1h5V8z M3,0v17.199c0,0.771-1,0.771-1,0V2H0
		v15.98C0,19.096,0.905,20,2.02,20h19.959C23.096,20,24,19.096,24,17.98V0H3z M22,17H5V2h17V17z M13,5H7v4h6V5z"/>
</g>
</svg>
