<?xml version="1.0" encoding="utf-8"?>
<!-- Generator: Adobe Illustrator 15.1.0, SVG Export Plug-In . SVG Version: 6.00 Build 0)  -->
<!DOCTYPE svg PUBLIC "-//W3C//DTD SVG 1.1//EN" "http://www.w3.org/Graphics/SVG/1.1/DTD/svg11.dtd">
<svg version="1.1" id="Calque_1" xmlns="http://www.w3.org/2000/svg" xmlns:xlink="http://www.w3.org/1999/xlink" x="0px" y="0px"
	 width="81.177px" height="66.86px" viewBox="0 0 81.177 66.86" enable-background="new 0 0 81.177 66.86" xml:space="preserve">
<path d="M18.032,13.099l2.723-7.96h0.181l2.76,7.96H18.032z M18.225,0l-7.7,20.771h5.095l1.417-3.836h7.709l1.428,3.836h5.009
	L23.72,0H18.225z"/>
<path d="M74.833,5.413l-1.766,2.626l2.625,3.696l4.518-6.322H74.833z M73.068,18.363l1.639,2.406H80l-4.308-6.049L73.068,18.363z
	 M63.314,5.413l5.738,7.806l-5.655,7.551h5.304l5.408-7.551l-5.572-7.806H63.314z"/>
<path d="M48.89,6.453c0.389,0.863,1.043,2.329,1.355,2.969c0.398-0.2,1.842-1.004,3.918-1.004c2.381,0,3.143,1.252,3.143,2.516
	v0.146h-2.533c-3.977,0-6.57,2.071-6.57,5.034c0,2.938,2.014,4.938,5.232,4.938c2.517,0,3.932-1.138,4.205-1.334
	c0.022,0.173,0.135,1.052,0.135,1.052h4.174h-0.006c-0.017-0.301-0.045-0.715-0.072-1.054c-0.072-0.832-0.159-1.864-0.159-3.331
	v-5.114c0-4.143-2.665-6.176-6.96-6.176C51.479,5.096,49.307,6.253,48.89,6.453 M52.595,15.843c0-1.015,0.793-1.927,2.621-1.927
	h2.09v3.387c-0.244,0.098-1.377,0.582-2.311,0.582C53.492,17.885,52.595,17.121,52.595,15.843"/>
<path d="M38.69,8.751c2.411,0,3.801,1.421,3.801,4.51c0,3.062-1.357,4.493-3.801,4.493c-0.5,0-1.137-0.121-1.341-0.165V8.92
	C37.583,8.873,38.104,8.751,38.69,8.751 M37.351,20.92c0.343,0.088,0.934,0.235,1.972,0.235c3.708,0,7.547-2.383,7.547-8.028
	c0-4.649-3.069-8.016-8.443-8.016c-2.763,0-5.367,0.656-5.391,0.664l-0.071,0.018V27.09l4.386-0.74V20.92z"/>
<polygon fill="#0D91A2" points="40.947,42.798 39.862,42.798 39.862,32.743 38.642,32.743 38.642,31.74 39.862,31.74 39.862,27.783 
	40.947,27.783 40.947,31.74 42.898,31.74 42.898,32.743 40.947,32.743 "/>
<path fill="#0D91A2" d="M55.121,31.739v11.059h-1.084v-1.979c-0.975,1.49-2.492,2.276-4.309,2.276c-3.145,0-5.42-2.466-5.42-5.881
	c0-3.361,2.222-5.719,5.393-5.719c1.844,0,3.197,0.678,4.336,2.168v-1.925H55.121z M45.419,37.16c0,2.846,1.843,4.933,4.336,4.933
	c2.547,0,4.363-2.032,4.363-4.933c0-1.572-0.434-2.656-1.383-3.496c-0.84-0.732-1.951-1.166-2.98-1.166
	C47.316,32.498,45.419,34.531,45.419,37.16"/>
<rect x="58.972" y="27.682" fill="#0D91A2" width="1.084" height="15.116"/>
<polygon fill="#0D91A2" points="65.017,36.429 69.542,31.74 70.953,31.74 66.318,36.537 72.524,42.798 71.033,42.798 65.585,37.323 
	65.017,37.893 65.017,42.798 63.932,42.798 63.932,27.682 65.017,27.682 "/>
<path fill="#0D91A2" d="M79.382,33.772c-0.461-0.841-1.084-1.274-1.896-1.274c-1.057,0-1.925,0.813-1.925,1.789
	c0,0.867,0.517,1.328,2.169,1.951c1.409,0.516,1.626,0.625,2.141,1.004c0.705,0.542,1.084,1.354,1.084,2.357
	c0,2.033-1.49,3.496-3.604,3.496c-1.844,0-3.227-1.057-3.795-2.927l1.057-0.325c0.516,1.518,1.436,2.249,2.738,2.249
	c1.408,0,2.492-1.056,2.492-2.467c0-1.11-0.515-1.653-2.141-2.249c-2.412-0.867-3.252-1.653-3.252-3.035
	c0-1.572,1.328-2.846,2.98-2.846c1.247,0,2.25,0.623,2.873,1.789L79.382,33.772z"/>
<path fill="none" stroke="#000000" stroke-width="0.6879" stroke-miterlimit="10" d="M81.177,47.24H40.835
	c0,0-0.739,9.199-16.461,18.398c11.582-14.623,4.978-18.398,4.978-18.398H0"/>
</svg>
