<?xml version="1.0" encoding="utf-8"?>
<!-- Generator: Adobe Illustrator 15.1.0, SVG Export Plug-In . SVG Version: 6.00 Build 0)  -->
<!DOCTYPE svg PUBLIC "-//W3C//DTD SVG 1.1//EN" "http://www.w3.org/Graphics/SVG/1.1/DTD/svg11.dtd">
<svg version="1.1" id="Calque_1" xmlns="http://www.w3.org/2000/svg" xmlns:xlink="http://www.w3.org/1999/xlink" x="0px" y="0px"
	 width="25px" height="20px" viewBox="0 0 25 20" enable-background="new 0 0 25 20" xml:space="preserve">
<path fill="#11A2B3" d="M24.539,2.533c-0.887,0.394-1.838,0.658-2.838,0.778c1.021-0.611,1.805-1.58,2.172-2.733
	c-0.953,0.565-2.012,0.978-3.137,1.198c-0.898-0.959-2.186-1.56-3.605-1.56c-3.189,0-5.533,2.976-4.813,6.064
	c-4.104-0.206-7.743-2.172-10.18-5.16c-1.295,2.22-0.672,5.124,1.527,6.595C2.857,7.69,2.095,7.468,1.429,7.099
	c-0.054,2.287,1.586,4.429,3.962,4.904c-0.694,0.189-1.456,0.233-2.231,0.086c0.629,1.961,2.452,3.389,4.615,3.429
	c-2.076,1.628-4.693,2.356-7.313,2.047c2.187,1.401,4.783,2.219,7.572,2.219c9.171,0,14.353-7.745,14.041-14.692
	C23.039,4.394,23.877,3.523,24.539,2.533z"/>
</svg>
