<?xml version="1.0" encoding="utf-8"?>
<!-- Generator: Adobe Illustrator 15.1.0, SVG Export Plug-In . SVG Version: 6.00 Build 0)  -->
<!DOCTYPE svg PUBLIC "-//W3C//DTD SVG 1.1//EN" "http://www.w3.org/Graphics/SVG/1.1/DTD/svg11.dtd">
<svg version="1.1" id="Calque_1" xmlns="http://www.w3.org/2000/svg" xmlns:xlink="http://www.w3.org/1999/xlink" x="0px" y="0px"
	 width="14px" height="14px" viewBox="0 0 14 14" enable-background="new 0 0 14 14" xml:space="preserve">
<path fill="#1190A1" d="M7,1.381c3.098,0,5.619,2.521,5.619,5.619S10.098,12.619,7,12.619S1.381,10.098,1.381,7S3.902,1.381,7,1.381
	z M7,0.258C3.276,0.258,0.258,3.276,0.258,7S3.276,13.742,7,13.742c3.723,0,6.742-3.019,6.742-6.742S10.723,0.258,7,0.258z
	 M10.285,7.258c0.113,0.021,0.113,0.188,0.001,0.209C9.215,7.67,6.891,8.092,6.607,8.092c-0.404,0-0.73-0.328-0.73-0.731
	c0-0.288,0.433-3.061,0.633-4.183c0.018-0.108,0.174-0.102,0.191,0.008L7.255,6.69L10.285,7.258z"/>
</svg>
