<?xml version="1.0" encoding="utf-8"?>
<!-- Generator: Adobe Illustrator 15.1.0, SVG Export Plug-In . SVG Version: 6.00 Build 0)  -->
<!DOCTYPE svg PUBLIC "-//W3C//DTD SVG 1.1//EN" "http://www.w3.org/Graphics/SVG/1.1/DTD/svg11.dtd">
<svg version="1.1" id="Calque_1" xmlns="http://www.w3.org/2000/svg" xmlns:xlink="http://www.w3.org/1999/xlink" x="0px" y="0px"
	 width="24px" height="24px" viewBox="0 0 24 24" enable-background="new 0 0 24 24" xml:space="preserve">
<g>
	<path fill="#FFFFFF" d="M20,20h-4v-4h4V20z M14,10h-4v4h4V10z M20,10h-4v4h4V10z M8,16H4v4h4V16z M14,16h-4v4h4V16z M8,10H4v4h4V10
		z M24,2v22H0V2h3v1c0,1.103,0.896,2,2,2c1.103,0,2-0.897,2-2V2h10v1c0,1.103,0.896,2,2,2c1.103,0,2-0.897,2-2V2H24z M22,8H2v14h20
		V8z M20,1c0-0.552-0.447-1-1-1c-0.554,0-1,0.448-1,1v2c0,0.552,0.446,1,1,1c0.553,0,1-0.448,1-1V1z M6,3c0,0.552-0.447,1-1,1
		C4.446,4,4,3.552,4,3V1c0-0.552,0.446-1,1-1c0.553,0,1,0.448,1,1V3z"/>
</g>
</svg>
