<?xml version="1.0" encoding="utf-8"?>
<!-- Generator: Adobe Illustrator 15.1.0, SVG Export Plug-In . SVG Version: 6.00 Build 0)  -->
<!DOCTYPE svg PUBLIC "-//W3C//DTD SVG 1.1//EN" "http://www.w3.org/Graphics/SVG/1.1/DTD/svg11.dtd">
<svg version="1.1" id="Calque_1" xmlns="http://www.w3.org/2000/svg" xmlns:xlink="http://www.w3.org/1999/xlink" x="0px" y="0px"
	 width="199.325px" height="64.859px" viewBox="0 0 199.325 64.859" enable-background="new 0 0 199.325 64.859"
	 xml:space="preserve">
<g>
	<path fill="#FFFFFF" d="M15.06,26.275l5.462-15.966h0.363l5.536,15.966H15.06z M15.446,0L0,41.663h10.22l2.842-7.694h15.465
		l2.864,7.694H41.44L26.468,0H15.446z"/>
	<path fill="#FFFFFF" d="M128.996,10.858l-3.539,5.267l5.264,7.415l9.063-12.682H128.996z M125.457,36.836l3.287,4.827h10.617
		l-8.641-12.135L125.457,36.836z M105.89,10.858l11.509,15.658l-11.343,15.147h10.638l10.85-15.147l-11.177-15.658H105.89z"/>
	<path fill="#FFFFFF" d="M76.957,12.946c0.781,1.73,2.094,4.67,2.721,5.955c0.799-0.402,3.693-2.014,7.857-2.014
		c4.777,0,6.305,2.512,6.305,5.046c0,0,0,0.263,0,0.292c-0.344,0-5.08,0-5.08,0c-7.98,0-13.183,4.155-13.183,10.099
		c0,5.893,4.041,9.907,10.498,9.907c5.048,0,7.885-2.282,8.435-2.675c0.045,0.346,0.268,2.108,0.268,2.108h8.375h-0.011
		c-0.035-0.603-0.092-1.434-0.146-2.114c-0.146-1.668-0.319-3.738-0.319-6.681V22.609c0-8.31-5.346-12.387-13.963-12.387
		C82.15,10.222,77.793,12.542,76.957,12.946z M84.388,31.779c0-2.034,1.591-3.865,5.26-3.865c0,0,3.849,0,4.191,0
		c0,0.35,0,6.542,0,6.794c-0.49,0.196-2.764,1.167-4.637,1.167C86.187,35.875,84.388,34.344,84.388,31.779z"/>
	<path fill="#FFFFFF" d="M56.498,17.554c4.835,0,7.624,2.849,7.624,9.045c0,6.143-2.722,9.014-7.624,9.014
		c-1.002,0-2.282-0.244-2.69-0.33c0-0.309,0-17.079,0-17.389C54.276,17.797,55.321,17.554,56.498,17.554z M53.811,41.962
		c0.688,0.177,1.874,0.474,3.955,0.474c7.438,0,15.138-4.78,15.138-16.105c0-9.326-6.158-16.078-16.935-16.078
		c-5.542,0-10.766,1.317-10.813,1.331l-0.142,0.036V54.34l8.797-1.485C53.811,52.855,53.811,42.42,53.811,41.962z"/>
	<path fill="#FFFFFF" d="M83.98,56.464c0,0.563-0.085,0.902-0.289,1.228c-0.323,0.491-0.612,0.612-1.584,0.612h-1.242v-3.61h1.516
		C83.384,54.693,83.98,55.358,83.98,56.464z M86.585,56.412c0-1.362-0.596-2.451-1.703-3.065c-0.664-0.373-1.275-0.578-3.286-0.578
		h-3.114v11.835h2.383v-4.36h1.311c1.313,0,1.822-0.136,2.367-0.391C85.835,59.239,86.585,57.98,86.585,56.412z"/>
	<path fill="#FFFFFF" d="M98.526,59.817h-2.316c0.255-0.782,0.408-1.347,0.631-2.197c0.22-0.887,0.562-2.282,0.562-2.282
		s0.357,1.552,0.477,2.094C98.132,58.576,98.526,59.817,98.526,59.817z M102.494,64.604l-3.73-11.869h-2.57L92.31,64.604h2.486
		l0.834-2.811h3.474l0.835,2.811H102.494z"/>
	<path fill="#FFFFFF" d="M115.912,56.294c0,0.491-0.172,0.918-0.461,1.19c-0.323,0.29-0.766,0.393-1.787,0.393h-0.801v-3.202h0.852
		c0.58,0,1.072,0.067,1.345,0.17C115.623,55.05,115.912,55.562,115.912,56.294z M119.112,64.604c0,0-2.163-3.749-2.844-4.599
		c-0.153-0.206-0.255-0.304-0.493-0.494c1.465-0.031,2.641-1.5,2.641-3.269c0-2.079-1.381-3.474-3.476-3.474h-4.411v11.835h2.334
		v-4.938c0.153,0.016,0.255,0.051,0.373,0.101c0.428,0.189,0.784,0.766,1.959,2.896c0.461,0.833,0.646,1.159,1.107,1.942H119.112z"
		/>
	<path fill="#FFFFFF" d="M134.233,54.742h-2.827v9.862h-2.418v-9.862h-2.896v-1.974h8.532L134.233,54.742z"/>
	<path fill="#FFFFFF" d="M148.195,64.604l-2.025-4.532c-0.664-1.48-1.381-3.15-1.6-3.881c0.083,0.969,0.102,2.367,0.117,3.354
		l0.068,5.059h-2.299V52.769h2.641l2.266,4.733c0.594,1.259,1.055,2.503,1.292,3.354c-0.085-0.917-0.169-2.431-0.188-3.251
		l-0.05-4.836h2.264v11.835H148.195z"/>
	<path fill="#FFFFFF" d="M159.788,64.604V52.769h6.741l-0.306,1.94h-4.052v2.744h3.388v1.94h-3.354v3.166h4.479v2.045H159.788z"/>
	<path fill="#FFFFFF" d="M180.578,56.294c0,0.491-0.17,0.918-0.459,1.19c-0.325,0.29-0.767,0.393-1.788,0.393h-0.801v-3.202h0.852
		c0.58,0,1.073,0.067,1.345,0.17C180.289,55.05,180.578,55.562,180.578,56.294z M183.779,64.604c0,0-2.163-3.749-2.844-4.599
		c-0.152-0.206-0.255-0.304-0.494-0.494c1.465-0.031,2.641-1.5,2.641-3.269c0-2.079-1.381-3.474-3.473-3.474h-4.411v11.835h2.332
		v-4.938c0.154,0.016,0.255,0.051,0.375,0.101c0.426,0.189,0.782,0.766,1.957,2.896c0.461,0.833,0.647,1.159,1.107,1.942H183.779z"
		/>
	<path fill="#FFFFFF" d="M194.437,64.859c-1.344,0-2.843-0.391-4.035-1.072l0.887-1.86c1.105,0.583,2.059,0.956,3.252,0.956
		c1.362,0,2.077-0.563,2.077-1.619c0-0.766-0.493-1.242-1.55-1.529l-1.312-0.362c-1.175-0.319-1.905-0.781-2.332-1.496
		c-0.324-0.529-0.493-1.143-0.493-1.806c0-2.164,1.735-3.66,4.239-3.66c1.447,0,2.911,0.442,3.95,1.192l-1.122,1.704
		c-1.075-0.647-1.874-0.904-2.76-0.904c-0.97,0-1.652,0.563-1.652,1.362c0,0.614,0.323,0.92,1.311,1.192l1.432,0.391
		c1.941,0.529,2.996,1.773,2.996,3.528C199.325,63.273,197.384,64.859,194.437,64.859z"/>
</g>
</svg>
