<?xml version="1.0" encoding="utf-8"?>
<!-- Generator: Adobe Illustrator 15.1.0, SVG Export Plug-In . SVG Version: 6.00 Build 0)  -->
<!DOCTYPE svg PUBLIC "-//W3C//DTD SVG 1.1//EN" "http://www.w3.org/Graphics/SVG/1.1/DTD/svg11.dtd">
<svg version="1.1" id="Calque_1" xmlns="http://www.w3.org/2000/svg" xmlns:xlink="http://www.w3.org/1999/xlink" x="0px" y="0px"
	 width="82px" height="67px" viewBox="0 0 82 67" enable-background="new 0 0 82 67" xml:space="preserve">
<g>
	<g>
		<path d="M18.233,13.138l2.748-7.974h0.183l2.785,7.974H18.233z M18.427,0.015l-7.771,20.809h5.142l1.43-3.843h7.781l1.441,3.843
			h5.057L23.972,0.015H18.427z"/>
	</g>
	<g>
		<path d="M75.559,5.438l-1.782,2.631l2.649,3.703l4.56-6.334H75.559z M73.776,18.413l1.654,2.411h5.343l-4.348-6.061L73.776,18.413
			z M63.933,5.438l5.791,7.822l-5.707,7.565h5.353l5.458-7.565l-5.624-7.822H63.933z"/>
	</g>
	<g>
		<path d="M49.377,6.481c0.392,0.864,1.052,2.333,1.367,2.974c0.401-0.2,1.858-1.005,3.954-1.005c2.402,0,3.172,1.254,3.172,2.521
			v0.146h-2.557c-4.015,0-6.632,2.075-6.632,5.044c0,2.942,2.033,4.948,5.28,4.948c2.54,0,3.968-1.14,4.245-1.336
			c0.021,0.173,0.135,1.053,0.135,1.053h4.214H62.55c-0.018-0.301-0.046-0.716-0.074-1.056c-0.072-0.833-0.16-1.867-0.16-3.336
			v-5.125c0-4.15-2.688-6.188-7.025-6.188C51.988,5.12,49.796,6.279,49.377,6.481 M53.114,15.887c0-1.015,0.801-1.93,2.646-1.93
			h2.109v3.394c-0.246,0.098-1.39,0.583-2.334,0.583C54.02,17.934,53.114,17.168,53.114,15.887"/>
	</g>
	<g>
		<path d="M39.082,8.782c2.433,0,3.836,1.423,3.836,4.518c0,3.068-1.369,4.502-3.836,4.502c-0.504,0-1.148-0.122-1.354-0.165V8.952
			C37.963,8.904,38.49,8.782,39.082,8.782 M37.729,20.974c0.347,0.088,0.944,0.236,1.99,0.236c3.744,0,7.617-2.387,7.617-8.043
			c0-4.658-3.098-8.031-8.521-8.031c-2.788,0-5.417,0.659-5.44,0.666l-0.072,0.018v21.337l4.426-0.741V20.974z"/>
	</g>
	<g>
		<polygon fill="#1292A3" points="41.358,42.893 40.264,42.893 40.264,32.819 39.034,32.819 39.034,31.814 40.264,31.814 
			40.264,27.85 41.358,27.85 41.358,31.814 43.328,31.814 43.328,32.819 41.358,32.819 		"/>
	</g>
	<g>
		<path fill="#1292A3" d="M55.665,31.813v11.079H54.57V40.91c-0.984,1.493-2.518,2.282-4.35,2.282c-3.173,0-5.471-2.472-5.471-5.894
			c0-3.367,2.243-5.729,5.443-5.729c1.859,0,3.229,0.679,4.377,2.172v-1.928H55.665z M45.871,37.245c0,2.852,1.86,4.941,4.377,4.941
			c2.571,0,4.404-2.037,4.404-4.941c0-1.575-0.438-2.661-1.395-3.503c-0.848-0.733-1.97-1.168-3.01-1.168
			C47.786,32.574,45.871,34.612,45.871,37.245"/>
	</g>
	<g>
		<rect x="59.551" y="27.748" fill="#1292A3" width="1.094" height="15.145"/>
	</g>
	<g>
		<polygon fill="#1292A3" points="65.651,36.512 70.218,31.814 71.641,31.814 66.965,36.62 73.229,42.893 71.724,42.893 
			66.225,37.408 65.651,37.978 65.651,42.893 64.557,42.893 64.557,27.748 65.651,27.748 		"/>
	</g>
	<g>
		<path fill="#1292A3" d="M80.15,33.85c-0.466-0.842-1.095-1.276-1.915-1.276c-1.066,0-1.942,0.814-1.942,1.792
			c0,0.87,0.521,1.331,2.188,1.955c1.422,0.517,1.642,0.625,2.16,1.005c0.713,0.543,1.095,1.357,1.095,2.362
			c0,2.036-1.504,3.503-3.637,3.503c-1.86,0-3.257-1.06-3.83-2.933l1.065-0.326c0.521,1.521,1.45,2.254,2.765,2.254
			c1.421,0,2.515-1.06,2.515-2.472c0-1.111-0.519-1.655-2.16-2.252c-2.435-0.871-3.281-1.657-3.281-3.042
			c0-1.576,1.34-2.851,3.009-2.851c1.257,0,2.269,0.625,2.899,1.792L80.15,33.85z"/>
	</g>
	<g>
		<path d="M23.214,66.999l1.147-1.438c6.412-8.037,7.198-12.694,6.728-15.187c-0.327-1.739-1.265-2.501-1.535-2.688H0.034v-0.688
			H29.75l0.08,0.045c0.06,0.034,1.488,0.867,1.935,3.166c0.482,2.475-0.172,6.931-5.729,14.322
			c14.014-8.697,14.857-17.129,14.864-17.217l0.025-0.316h41.036v0.688H41.55c-0.28,1.733-2.347,10.024-16.741,18.386L23.214,66.999
			z"/>
	</g>
</g>
</svg>
