<?xml version="1.0" encoding="utf-8"?>
<!-- Generator: Adobe Illustrator 15.1.0, SVG Export Plug-In . SVG Version: 6.00 Build 0)  -->
<!DOCTYPE svg PUBLIC "-//W3C//DTD SVG 1.1//EN" "http://www.w3.org/Graphics/SVG/1.1/DTD/svg11.dtd">
<svg version="1.1" id="Calque_1" xmlns="http://www.w3.org/2000/svg" xmlns:xlink="http://www.w3.org/1999/xlink" x="0px" y="0px"
	 width="42.87px" height="42.869px" viewBox="0 0 42.87 42.869" enable-background="new 0 0 42.87 42.869" xml:space="preserve">
<path fill="#FFFFFF" d="M21.435,0C9.599,0,0,9.598,0,21.435s9.599,21.435,21.435,21.435c11.838,0,21.436-9.598,21.436-21.435
	S33.272,0,21.435,0 M17.862,28.579H14.29V17.862h3.572V28.579z M16.075,16.271c-1.084,0-1.965-0.887-1.965-1.981
	c0-1.093,0.879-1.98,1.965-1.98s1.966,0.888,1.966,1.98C18.041,15.384,17.159,16.271,16.075,16.271 M30.366,28.579h-3.569v-5.11
	c0-3.359-3.576-3.075-3.576,0v5.11h-3.571V17.862h3.571v1.952c1.558-2.887,7.146-3.102,7.146,2.765V28.579z"/>
</svg>
