<?xml version="1.0" encoding="utf-8"?>
<!-- Generator: Adobe Illustrator 15.1.0, SVG Export Plug-In  -->
<!DOCTYPE svg PUBLIC "-//W3C//DTD SVG 1.1//EN" "http://www.w3.org/Graphics/SVG/1.1/DTD/svg11.dtd" [
	<!ENTITY ns_flows "http://ns.adobe.com/Flows/1.0/">
]>
<svg version="1.1"
	 xmlns="http://www.w3.org/2000/svg" xmlns:xlink="http://www.w3.org/1999/xlink" xmlns:a="http://ns.adobe.com/AdobeSVGViewerExtensions/3.0/"
	 x="0px" y="0px" width="25px" height="26px" viewBox="-0.216 -0.356 25 26" enable-background="new -0.216 -0.356 25 26"
	 xml:space="preserve">
<defs>
</defs>
<path fill="#FFFFFF" d="M0,25.287h24.567V0H0V25.287z M19.309,9.732c0.213,4.865-3.313,10.289-9.551,10.289
	c-1.898,0-3.664-0.573-5.151-1.554c1.783,0.216,3.563-0.293,4.976-1.433c-1.471-0.028-2.712-1.027-3.139-2.402
	c0.525,0.104,1.044,0.073,1.517-0.059c-1.616-0.335-2.73-1.833-2.695-3.436c0.454,0.26,0.972,0.415,1.522,0.433
	c-1.496-1.029-1.921-3.063-1.04-4.618c1.657,2.094,4.134,3.47,6.926,3.614c-0.49-2.163,1.105-4.246,3.273-4.246
	c0.969,0,1.84,0.419,2.453,1.091c0.766-0.154,1.484-0.442,2.133-0.838c-0.25,0.808-0.781,1.485-1.477,1.913
	c0.68-0.084,1.328-0.27,1.93-0.545C20.534,8.636,19.965,9.245,19.309,9.732"/>
</svg>
