<?xml version="1.0" encoding="utf-8"?>
<!-- Generator: Adobe Illustrator 15.1.0, SVG Export Plug-In . SVG Version: 6.00 Build 0)  -->
<!DOCTYPE svg PUBLIC "-//W3C//DTD SVG 1.1//EN" "http://www.w3.org/Graphics/SVG/1.1/DTD/svg11.dtd">
<svg version="1.1" id="Calque_1" xmlns="http://www.w3.org/2000/svg" xmlns:xlink="http://www.w3.org/1999/xlink" x="0px" y="0px"
	 width="13.6px" height="11.053px" viewBox="0 0 13.6 11.053" enable-background="new 0 0 13.6 11.053" xml:space="preserve">
<path fill="#666666" d="M13.6,1.309c-0.5,0.223-1.038,0.372-1.603,0.439c0.576-0.345,1.02-0.892,1.227-1.544
	c-0.538,0.32-1.136,0.552-1.771,0.678C10.943,0.339,10.218,0,9.416,0C7.614,0,6.291,1.681,6.697,3.426
	C4.379,3.31,2.323,2.199,0.946,0.511C0.216,1.765,0.567,3.405,1.81,4.236c-0.457-0.015-0.887-0.14-1.263-0.349
	C0.516,5.18,1.442,6.389,2.785,6.658C2.392,6.765,1.962,6.789,1.524,6.706c0.354,1.108,1.385,1.915,2.606,1.938
	C2.958,9.563,1.479,9.974,0,9.799c1.234,0.792,2.701,1.254,4.277,1.254c5.18,0,8.106-4.375,7.93-8.3
	C12.753,2.359,13.226,1.868,13.6,1.309z"/>
</svg>
