<?xml version="1.0" encoding="utf-8"?>
<!-- Generator: Adobe Illustrator 15.1.0, SVG Export Plug-In . SVG Version: 6.00 Build 0)  -->
<!DOCTYPE svg PUBLIC "-//W3C//DTD SVG 1.1//EN" "http://www.w3.org/Graphics/SVG/1.1/DTD/svg11.dtd">
<svg version="1.1" id="Calque_1" xmlns="http://www.w3.org/2000/svg" xmlns:xlink="http://www.w3.org/1999/xlink" x="0px" y="0px"
	 width="42.468px" height="42.469px" viewBox="0 0 42.468 42.469" enable-background="new 0 0 42.468 42.469" xml:space="preserve">
<path fill="#FFFFFF" d="M21.234,0C9.508,0,0,9.509,0,21.234c0,11.727,9.508,21.234,21.234,21.234s21.233-9.508,21.233-21.234
	C42.468,9.509,32.961,0,21.234,0 M31.968,17.067c0.324,7.149-5.007,15.118-14.445,15.118c-2.87,0-5.54-0.842-7.789-2.284
	c2.695,0.319,5.388-0.432,7.524-2.104c-2.225-0.041-4.101-1.512-4.75-3.53c0.797,0.151,1.583,0.107,2.296-0.087
	c-2.443-0.492-4.132-2.693-4.077-5.048c0.688,0.38,1.47,0.608,2.303,0.635c-2.264-1.514-2.904-4.501-1.573-6.786
	c2.507,3.076,6.252,5.098,10.476,5.31c-0.742-3.178,1.67-6.24,4.953-6.24c1.459,0,2.781,0.617,3.708,1.604
	c1.157-0.226,2.247-0.651,3.228-1.232c-0.381,1.187-1.186,2.182-2.234,2.812c1.027-0.124,2.008-0.397,2.918-0.802
	C33.824,15.455,32.964,16.351,31.968,17.067"/>
</svg>
