<?xml version="1.0" encoding="utf-8"?>
<!-- Generator: Adobe Illustrator 15.1.0, SVG Export Plug-In . SVG Version: 6.00 Build 0)  -->
<!DOCTYPE svg PUBLIC "-//W3C//DTD SVG 1.1//EN" "http://www.w3.org/Graphics/SVG/1.1/DTD/svg11.dtd">
<svg version="1.1" id="Calque_1" xmlns="http://www.w3.org/2000/svg" xmlns:xlink="http://www.w3.org/1999/xlink" x="0px" y="0px"
	 width="42.147px" height="42.146px" viewBox="0 0 42.147 42.146" enable-background="new 0 0 42.147 42.146" xml:space="preserve">
<path fill="#FFFFFF" d="M19.173,24.468h1.24v6.665h-1.24v-0.736c-0.228,0.271-0.467,0.478-0.711,0.62
	c-0.669,0.384-1.584,0.374-1.584-0.978v-5.571h1.238v5.109c0,0.268,0.064,0.449,0.33,0.449c0.242,0,0.578-0.31,0.729-0.499v-5.06
	H19.173z M20.301,17.126c0.352,0,0.546-0.281,0.546-0.662v-3.256c0-0.392-0.172-0.668-0.568-0.668c-0.365,0-0.543,0.283-0.543,0.668
	v3.256C19.734,16.832,19.941,17.126,20.301,17.126 M16.892,22.097h-4.282v1.313h1.444v7.724h1.396v-7.724h1.441V22.097z
	 M25.183,26.054v3.697c0,0.825-0.309,1.464-1.133,1.464c-0.455,0-0.832-0.165-1.178-0.597v0.513H21.62v-9.036h1.252v2.909
	c0.281-0.341,0.658-0.622,1.103-0.622C24.884,24.384,25.183,25.149,25.183,26.054 M23.906,26.129c0-0.224-0.042-0.395-0.132-0.512
	c-0.151-0.199-0.428-0.221-0.645-0.109l-0.256,0.203v4.154l0.293,0.234c0.202,0.103,0.497,0.109,0.634-0.067
	c0.069-0.096,0.106-0.248,0.106-0.461L23.906,26.129L23.906,26.129z M42.147,21.073c0,11.638-9.436,21.073-21.074,21.073
	C9.436,42.146,0,32.711,0,21.073C0,9.435,9.436,0,21.073,0C32.712,0,42.147,9.435,42.147,21.073 M23.276,17.12
	c0,0.691,0.21,1.251,0.91,1.251c0.395,0,0.938-0.206,1.502-0.875v0.772h1.302v-7h-1.302v5.313c-0.157,0.199-0.511,0.524-0.766,0.524
	c-0.279,0-0.346-0.188-0.346-0.472v-5.365h-1.301V17.12z M18.396,13.092v3.431c0,1.235,0.645,1.877,1.905,1.877
	c1.048,0,1.87-0.701,1.87-1.877v-3.431c0-1.096-0.816-1.881-1.87-1.881C19.156,11.211,18.396,11.97,18.396,13.092 M13.548,8.78
	l1.743,5.639v3.848h1.466v-3.848l1.705-5.639h-1.488l-0.94,3.794L15.024,8.78H13.548z M31.317,26.707
	c-0.023-4.575-0.358-6.326-3.245-6.522c-2.666-0.183-11.336-0.181-13.999,0c-2.883,0.196-3.223,1.939-3.246,6.522
	c0.023,4.577,0.358,6.326,3.246,6.523c2.663,0.182,11.333,0.182,13.999,0C30.956,33.033,31.294,31.292,31.317,26.707 M29.763,26.259
	v1.697h-2.371v1.257c0,0.501,0.043,0.933,0.541,0.933c0.523,0,0.554-0.352,0.554-0.933V28.75h1.276v0.5
	c0,1.284-0.549,2.062-1.855,2.062c-1.188,0-1.79-0.862-1.79-2.062v-2.992c0-1.158,0.765-1.96,1.88-1.96
	C29.188,24.299,29.763,25.055,29.763,26.259 M28.487,26.247c0-0.45-0.094-0.781-0.542-0.781c-0.458,0-0.552,0.323-0.552,0.781v0.676
	h1.094V26.247z"/>
</svg>
